<?xml version="1.0" encoding="utf-8"?>
<!-- Generator: Adobe Illustrator 25.4.1, SVG Export Plug-In . SVG Version: 6.00 Build 0)  -->
<svg version="1.1" id="Calque_1" xmlns="http://www.w3.org/2000/svg" xmlns:xlink="http://www.w3.org/1999/xlink" x="0px" y="0px"
	 viewBox="0 0 246.17 245.57" style="enable-background:new 0 0 246.17 245.57;" xml:space="preserve">
<style type="text/css">
	.st0{fill:#FFFFFF;}
	.st1{fill:none;stroke:#FFFFFF;stroke-width:16;stroke-linecap:round;stroke-linejoin:round;stroke-miterlimit:10;}
	.st2{fill:#75CAE8;}
</style>
<g>
	<g>
		<path class="st0" d="M179.27,208.38H67.08c-16.47,0-29.82-13.35-29.82-29.82v-44.98c0,0,29.88,26.03,171.83,2.36
			c0-8.88,0-6.76-2.22-5.92c-119.65,24.95-169.62-28-169.62-28V66.37c0-16.47,13.35-29.82,29.82-29.82h112.19
			c16.47,0,29.82,13.35,29.82,29.82c0,40.26,0,79.03,0,112.19C209.09,195.03,195.74,208.38,179.27,208.38z"/>
		<path class="st1" d="M180.21,235.33H66.14c-30.83,0-55.83-25-55.83-55.83V65.43c0-30.83,25-55.83,55.83-55.83h114.08
			c30.83,0,55.83,25,55.83,55.83V179.5C236.04,210.34,211.05,235.33,180.21,235.33z"/>
	</g>
	<g>
		<path class="st2" d="M140.12,181.7l28.02-3.44l-23.92-34.79c-10.98,0.96-20.95,1.55-29.96,1.81L140.12,181.7z"/>
		<path class="st2" d="M133.45,127.8l26.8-40.11l-30.47,2.19l-19.17,33.13l-6.7-68.48l-25.28,5.99l6.74,68.35
			c14.61,4.15,32.49,7.16,53.89,7.4L133.45,127.8z"/>
		<path class="st2" d="M116.47,182.92l-3.68-37.6c-9.67,0.25-18.24,0.15-25.82-0.22l3.99,40.47L116.47,182.92z"/>
	</g>
	<path class="st0" d="M37.26,102.01c56.69,55.45,171.14,27.2,171.14,27.2s-66.88,1.87-91.93-1.84
		C58.9,118.85,34.73,82.7,37.26,102.01z"/>
	<path class="st0" d="M37.26,133.57c45.87,20.03,111.28,9.9,171.83,2.36c-18.24,11.04-91.15,15.25-91.15,15.25
		S48.81,155.61,37.26,133.57z"/>
</g>
</svg>
